HIERARCHY
ROOT Hips
{
	OFFSET -3.958830 18.904000 13.208200
	CHANNELS 6 Xposition Yposition Zposition Zrotation Yrotation Xrotation 
	JOINT LHipJoint
	{
		OFFSET 0.000000 0.000000 0.000000
		CHANNELS 3 Zrotation Yrotation Xrotation
		JOINT LeftUpLeg
		{
			OFFSET 1.800000 -1.400000 0.085000
			CHANNELS 3 Zrotation Yrotation Xrotation
			JOINT LeftLeg
			{
				OFFSET 2.215000 -6.000000 0.000000
				CHANNELS 3 Zrotation Yrotation Xrotation
				JOINT LeftFoot
				{
					OFFSET 2.500000 -6.900000 0.000000
					CHANNELS 3 Zrotation Yrotation Xrotation
					JOINT LeftToeBase
					{
						OFFSET 0.200000 -0.500000 1.950000
						CHANNELS 3 Zrotation Yrotation Xrotation
						End Site
						{
							OFFSET 0.000000 0.000000 0.000000
						}
					}
				}
			}
		}
	}
	JOINT RHipJoint
	{
		OFFSET 0.000000 0.000000 0.000000
		CHANNELS 3 Zrotation Yrotation Xrotation
		JOINT RightUpLeg
		{
			OFFSET -1.800000 -1.400000 0.085000
			CHANNELS 3 Zrotation Yrotation Xrotation
			JOINT RightLeg
			{
				OFFSET -2.215000 -6.000000 0.000000
				CHANNELS 3 Zrotation Yrotation Xrotation
				JOINT RightFoot
				{
					OFFSET -2.500000 -6.900000 0.000000
					CHANNELS 3 Zrotation Yrotation Xrotation
					JOINT RightToeBase
					{
						OFFSET -0.200000 -0.500000 1.950000
						CHANNELS 3 Zrotation Yrotation Xrotation
						End Site
						{
							OFFSET 0.000000 0.000000 0.000000
						}
					}
				}
			}
		}
	}
	JOINT LowerBack
	{
		OFFSET 0.000000 0.000000 0.000000
		CHANNELS 3 Zrotation Yrotation Xrotation
		JOINT Spine
		{
			OFFSET -0.087000 1.940000 -0.288900
			CHANNELS 3 Zrotation Yrotation Xrotation
			JOINT Spine1
			{
				OFFSET 0.000000 1.950000 0.060000
				CHANNELS 3 Zrotation Yrotation Xrotation
				JOINT Neck
				{
					OFFSET 0.000000 0.000000 0.000000
					CHANNELS 3 Zrotation Yrotation Xrotation
					JOINT Neck1
					{
						OFFSET 0.000000 1.600000 0.340000
						CHANNELS 3 Zrotation Yrotation Xrotation
						JOINT Head
						{
							OFFSET 0.000000 1.667000 -0.240000
							CHANNELS 3 Zrotation Yrotation Xrotation
							End Site
							{
								OFFSET 0.000000 0.000000 0.000000
							}
						}
					}
				}
				JOINT LeftShoulder
				{
					OFFSET 0.000000 0.000000 0.000000
					CHANNELS 3 Zrotation Yrotation Xrotation
					JOINT LeftArm
					{
						OFFSET 2.700000 1.550000 -0.730000
						CHANNELS 3 Zrotation Yrotation Xrotation
						JOINT LeftForeArm
						{
							OFFSET 5.450000 0.000000 0.000000
							CHANNELS 3 Zrotation Yrotation Xrotation
							JOINT LeftHand
							{
								OFFSET 3.450000 0.000000 0.000000
								CHANNELS 3 Zrotation Yrotation Xrotation
								JOINT LeftHandIndex1
								{
									OFFSET 0.750000 0.000000 0.000000
									CHANNELS 3 Zrotation Yrotation Xrotation
									End Site
									{
										OFFSET 0.000000 0.000000 0.000000
									}
								}
							}
						}
					}
				}
				JOINT RightShoulder
				{
					OFFSET 0.000000 0.000000 0.000000
					CHANNELS 3 Zrotation Yrotation Xrotation
					JOINT RightArm
					{
						OFFSET -2.700000 1.550000 -0.730000
						CHANNELS 3 Zrotation Yrotation Xrotation
						JOINT RightForeArm
						{
							OFFSET -5.450000 0.000000 0.000000
							CHANNELS 3 Zrotation Yrotation Xrotation
							JOINT RightHand
							{
								OFFSET -3.450000 0.000000 0.000000
								CHANNELS 3 Zrotation Yrotation Xrotation
								JOINT RightHandIndex1
								{
									OFFSET -0.750000 0.000000 0.000000
									CHANNELS 3 Zrotation Yrotation Xrotation
									End Site
									{
										OFFSET 0.000000 0.000000 0.000000
									}
								}
							}
						}
					}
				}
			}
		}
	}
}
MOTION
Frames: 6
Frame Time: 0.016667
-0.654890 16.377710 -0.301510 -4.477913 -7.131524 6.904045 -15.940593 10.585569 7.589589 40.091938 -3.872274 -17.449520 -45.918282 6.789094 -6.530978 0.915477 10.120521 1.495947 0.033360 -0.363500 -0.232150 18.257708 -8.751034 0.280414 -16.214512 -1.672261 -25.407170 -12.346979 -2.546583 24.366660 0.234010 -4.021650 3.266118 0.046080 1.126300 0.318070 -2.680562 -4.106135 -8.333366 12.478575 -5.056840 7.688602 -7.232663 -2.484331 9.385274 0.205806 -1.378112 -8.570966 -5.456385 -1.739095 26.033512 0.241550 1.316950 11.612650 2.278059 10.866084 7.267016 -86.810220 -41.607692 57.177824 164.149347 -61.390257 -159.415643 -4.132357 3.921001 -0.119620 0.875640 -0.759780 0.410630 -3.472503 -15.855299 1.199157 57.791261 -14.649090 -13.356444 1.861902 75.536367 2.838036 1.141586 -2.698102 -0.400790 0.255660 0.176680 -0.026050 
-0.491160 16.365690 -0.308670 -4.411714 -7.644932 6.386968 -15.913145 10.661138 7.557695 39.711557 -3.809665 -17.961661 -47.841880 7.742025 -4.752847 1.031402 10.161517 1.479815 0.032480 -0.360850 -0.204690 18.263863 -8.821095 0.336334 -14.894017 -1.530868 -25.944011 -14.044662 -2.115912 26.091995 0.166700 -4.139658 3.230788 -0.004750 1.052060 0.295780 -2.722584 -4.083292 -8.408912 11.968828 -5.156787 8.820334 -6.411532 -2.472720 8.004546 0.031524 -1.599888 -8.409609 -6.234550 -1.116593 27.212660 0.594090 2.071650 11.693930 1.551622 11.028087 6.082181 -82.452811 -38.903784 50.930121 175.289627 -61.102458 -176.728475 -3.945196 3.896970 -0.077430 0.803930 -0.694490 0.405280 -2.278726 -15.328612 1.873148 59.233662 -16.067343 -15.207155 2.834128 76.171431 3.074621 1.206488 -2.632076 -0.368500 0.229140 0.137280 -0.025170 
-0.315660 16.378010 -0.320300 -4.501795 -8.225197 5.214739 -15.835689 10.769578 7.464269 39.077282 -3.683917 -17.916130 -49.208870 8.915804 -2.641410 1.109661 10.185121 1.425070 0.060180 -0.333160 -0.138140 18.298300 -8.950944 0.423679 -13.321839 -1.330426 -26.239331 -16.064197 -1.572291 28.496638 0.048806 -4.356020 3.138084 -0.048770 0.909610 0.272040 -2.872289 -3.976397 -8.512768 12.494622 -5.340925 10.922537 -6.534221 -2.420931 6.656276 0.120058 -2.115800 -8.495929 -7.807265 -0.270084 29.110521 0.833130 2.787590 10.466470 0.360343 10.357400 4.699352 -77.373812 -36.183866 44.014073 -175.058571 -60.248566 167.003275 -3.790444 3.822190 0.013520 0.684650 -0.588080 0.370490 -1.237100 -13.873491 2.860497 61.506259 -17.053488 -17.624822 3.094272 76.186007 2.802732 1.274569 -2.511041 -0.323170 0.189370 0.100510 -0.051540 
-0.142150 16.391940 -0.318920 -4.090657 -8.691410 4.111009 -15.740757 10.952727 7.235712 37.467019 -3.635002 -18.162081 -49.696447 10.425427 0.178446 1.149092 10.177206 1.399593 0.079810 -0.310950 -0.082330 18.318533 -9.135732 0.555887 -12.420022 -1.152085 -26.575049 -17.518534 -1.149121 30.631017 -0.066325 -4.590984 3.045083 -0.079720 0.807820 0.247280 -3.012714 -3.826065 -8.566428 12.630066 -5.417209 12.593274 -6.842044 -2.397953 4.991631 0.452715 -2.353763 -8.433812 -8.774413 0.670880 30.995579 0.862200 3.722790 9.302370 -0.665790 10.158587 3.158976 -72.647275 -33.073051 38.088406 -165.870206 -58.864797 150.903384 -3.710041 3.751145 0.100570 0.591410 -0.494660 0.353910 -0.788026 -13.120570 3.735432 63.792463 -17.651067 -19.158291 6.086480 76.079967 4.442293 1.333776 -2.433275 -0.304100 0.182690 0.065240 -0.072370 
0.026830 16.412700 -0.318390 -4.193120 -9.074276 3.467391 -15.619566 11.076489 6.936815 36.064938 -3.393203 -19.010811 -49.250844 12.477982 3.847622 1.147698 10.279632 1.344491 0.069780 -0.350530 -0.057890 18.383139 -9.304620 0.739689 -11.072649 -0.693551 -27.275236 -18.653890 -0.765161 32.999598 -0.155786 -4.910009 2.921336 -0.120970 0.768600 0.257600 -3.264755 -3.517892 -8.533771 14.097556 -5.505730 13.252053 -7.559430 -2.429455 3.773861 0.683463 -2.640281 -8.314855 -9.516528 1.473651 32.318491 0.633280 4.358270 9.329860 -1.589763 10.083783 1.915415 -68.679564 -30.586990 33.789824 -158.997673 -57.485881 138.428240 -3.726883 3.753972 0.153250 0.555930 -0.460780 0.331730 -0.361241 -12.594566 4.345564 65.195250 -17.584409 -19.696072 10.142937 75.377924 6.789963 1.376307 -2.397384 -0.299350 0.162950 0.074190 -0.094790 
0.178160 16.442650 -0.312450 -3.812286 -9.208301 2.568993 -15.497316 11.284074 6.525426 33.744445 -3.378608 -19.717610 -47.723526 14.699333 8.256568 1.129387 10.346989 1.314240 0.072580 -0.360280 -0.035910 18.431594 -9.522703 0.908305 -10.214220 -0.387410 -27.701492 -19.367338 -0.479017 35.409937 -0.236383 -5.259850 2.797071 -0.131110 0.747710 0.238890 -3.480428 -3.246289 -8.409508 14.690848 -5.602069 13.183725 -7.951287 -2.707176 3.386392 0.529185 -2.924214 -8.112430 -10.227637 2.484932 33.613900 0.692370 4.835210 9.654600 -2.431677 9.992712 1.227635 -65.085564 -28.532947 30.063699 -154.500825 -56.908462 130.330222 -3.737710 3.749890 0.183460 0.529670 -0.447940 0.324920 0.699921 -12.098746 4.423455 65.542851 -16.363692 -19.380482 12.671184 74.123102 8.023805 1.431607 -2.347484 -0.310140 0.168690 0.065860 -0.108420 
